<svg viewBox="0 0 600 600" fill="none" xmlns="http://www.w3.org/2000/svg">
  <!-- Wing (Green) -->
  <path
    d="M 133 55 L 135 57 L 135 67 L 137 70 L 140 90 L 151 120 L 160 137 L 181 165 L 199 183 L 225 202 L 247 214 L 262 219 L 266 222 L 281 226 L 282 228 L 256 236 L 228 249 L 199 270 L 175 295 L 163 312 L 147 344 L 132 398 L 133 401 L 131 404 L 132 408 L 172 376 L 272 308 L 285 295 L 293 284 L 301 268 L 300 267 L 304 258 L 308 238 L 308 219 L 301 190 L 293 173 L 276 152 L 245 129 L 235 124 L 231 120 L 158 74 Z"
    fill="#014A36"
  />
  <!-- Triangle Arrow (Gold) -->
  <path
    d="M 143 152 L 143 306 L 218 228 Z"
    fill="#C8922B"
  />
  <!-- Circle 1 (Gold) -->
  <circle
    cx="361.5"
    cy="177.5"
    r="30.5"
    fill="#C8922B"
  />
  <!-- Circle 2 (Gold) -->
  <circle
    cx="361.5"
    cy="285.5"
    r="30.5"
    fill="#C8922B"
  />
</svg>
